# xmcd
# 
# Track frame offsets:
#     150
#     19872
#     39792
#     60945
#     85810
#     107315
#     125710
#     152425
#     170700
#     189767
#     214510
#     236020
#     258542
#     293572
#     315352
#     337200
# 
# Disc length: 4744
# 
# Revision: 16
# Processed by: cddbd v1.5.2PL0 Copyright (c) Steve Scherf et al.
# Submitted via: fre:ac v1.0.17
# 
DISCID=cb128610
DTITLE=Various Artist - Smooth Jazz Cafe 2
DYEAR=2000
DGENRE=Jazz
TTITLE0=Maynard Ferguson - Gonna Fly Now
TTITLE1=Noa and Pat Metheny - Child Of Man
TTITLE2=Dave Koz - That's The Way I Feel About You
TTITLE3=Brian Bromberg - Through The Window
TTITLE4=Bernard Oattes - When I Go To Sleep
TTITLE5=Bobby Caldwell - Where Is Love
TTITLE6=Loud Jazz Band - 4ever2U
TTITLE7=Angelique Kidjo and Trilok Gurtu - African Fantasy
TTITLE8=Lionel Richie - Time
TTITLE9=David Benoit - Miles After Dark
TTITLE10=Basia and Spyro Gyra - Springtime Laughter
TTITLE11=Kayah - Jak liść
TTITLE12=Stanley Clarke - East River Drive
TTITLE13=Brenda Russell - Soul Talking
TTITLE14=Carl Anderson - Love Will Follow
TTITLE15=Gato Barbieri - Europa
EXTD=
EXTT0=
EXTT1=
EXTT2=
EXTT3=
EXTT4=
EXTT5=
EXTT6=
EXTT7=
EXTT8=
EXTT9=
EXTT10=
EXTT11=
EXTT12=
EXTT13=
EXTT14=
EXTT15=
PLAYORDER=
